<svg id="visual" viewBox="0 0 1400 800" width="1400" height="800" xmlns="http://www.w3.org/2000/svg" xmlns:xlink="http://www.w3.org/1999/xlink" version="1.1"><path d="M0 49L21.2 46.3C42.3 43.7 84.7 38.3 127.2 47.7C169.7 57 212.3 81 254.8 83.7C297.3 86.3 339.7 67.7 382 63.7C424.3 59.7 466.7 70.3 509 82.3C551.3 94.3 593.7 107.7 636.2 113C678.7 118.3 721.3 115.7 763.8 109C806.3 102.3 848.7 91.7 891 91.7C933.3 91.7 975.7 102.3 1018 106.3C1060.3 110.3 1102.7 107.7 1145.2 97C1187.7 86.3 1230.3 67.7 1272.8 62.3C1315.3 57 1357.7 65 1378.8 69L1400 73L1400 0L1378.8 0C1357.7 0 1315.3 0 1272.8 0C1230.3 0 1187.7 0 1145.2 0C1102.7 0 1060.3 0 1018 0C975.7 0 933.3 0 891 0C848.7 0 806.3 0 763.8 0C721.3 0 678.7 0 636.2 0C593.7 0 551.3 0 509 0C466.7 0 424.3 0 382 0C339.7 0 297.3 0 254.8 0C212.3 0 169.7 0 127.2 0C84.7 0 42.3 0 21.2 0L0 0Z" fill="#ca3cff"></path><path d="M0 225L21.2 234.3C42.3 243.7 84.7 262.3 127.2 267.7C169.7 273 212.3 265 254.8 259.7C297.3 254.3 339.7 251.7 382 242.3C424.3 233 466.7 217 509 211.7C551.3 206.3 593.7 211.7 636.2 226.3C678.7 241 721.3 265 763.8 283.7C806.3 302.3 848.7 315.7 891 339.7C933.3 363.7 975.7 398.3 1018 397C1060.3 395.7 1102.7 358.3 1145.2 337C1187.7 315.7 1230.3 310.3 1272.8 307.7C1315.3 305 1357.7 305 1378.8 305L1400 305L1400 71L1378.8 67C1357.7 63 1315.3 55 1272.8 60.3C1230.3 65.7 1187.7 84.3 1145.2 95C1102.7 105.7 1060.3 108.3 1018 104.3C975.7 100.3 933.3 89.7 891 89.7C848.7 89.7 806.3 100.3 763.8 107C721.3 113.7 678.7 116.3 636.2 111C593.7 105.7 551.3 92.3 509 80.3C466.7 68.3 424.3 57.7 382 61.7C339.7 65.7 297.3 84.3 254.8 81.7C212.3 79 169.7 55 127.2 45.7C84.7 36.3 42.3 41.7 21.2 44.3L0 47Z" fill="#a348e7"></path><path d="M0 417L21.2 425C42.3 433 84.7 449 127.2 466.3C169.7 483.7 212.3 502.3 254.8 511.7C297.3 521 339.7 521 382 513C424.3 505 466.7 489 509 493C551.3 497 593.7 521 636.2 502.3C678.7 483.7 721.3 422.3 763.8 423.7C806.3 425 848.7 489 891 526.3C933.3 563.7 975.7 574.3 1018 563.7C1060.3 553 1102.7 521 1145.2 499.7C1187.7 478.3 1230.3 467.7 1272.8 474.3C1315.3 481 1357.7 505 1378.8 517L1400 529L1400 303L1378.8 303C1357.7 303 1315.3 303 1272.8 305.7C1230.3 308.3 1187.7 313.7 1145.2 335C1102.7 356.3 1060.3 393.7 1018 395C975.7 396.3 933.3 361.7 891 337.7C848.7 313.7 806.3 300.3 763.8 281.7C721.3 263 678.7 239 636.2 224.3C593.7 209.7 551.3 204.3 509 209.7C466.7 215 424.3 231 382 240.3C339.7 249.7 297.3 252.3 254.8 257.7C212.3 263 169.7 271 127.2 265.7C84.7 260.3 42.3 241.7 21.2 232.3L0 223Z" fill="#814bcb"></path><path d="M0 497L21.2 509C42.3 521 84.7 545 127.2 562.3C169.7 579.7 212.3 590.3 254.8 599.7C297.3 609 339.7 617 382 613C424.3 609 466.7 593 509 602.3C551.3 611.7 593.7 646.3 636.2 631.7C678.7 617 721.3 553 763.8 542.3C806.3 531.7 848.7 574.3 891 597C933.3 619.7 975.7 622.3 1018 615.7C1060.3 609 1102.7 593 1145.2 575.7C1187.7 558.3 1230.3 539.7 1272.8 541C1315.3 542.3 1357.7 563.7 1378.8 574.3L1400 585L1400 527L1378.8 515C1357.7 503 1315.3 479 1272.8 472.3C1230.3 465.7 1187.7 476.3 1145.2 497.7C1102.7 519 1060.3 551 1018 561.7C975.7 572.3 933.3 561.7 891 524.3C848.7 487 806.3 423 763.8 421.7C721.3 420.3 678.7 481.7 636.2 500.3C593.7 519 551.3 495 509 491C466.7 487 424.3 503 382 511C339.7 519 297.3 519 254.8 509.7C212.3 500.3 169.7 481.7 127.2 464.3C84.7 447 42.3 431 21.2 423L0 415Z" fill="#654aad"></path><path d="M0 721L21.2 715.7C42.3 710.3 84.7 699.7 127.2 694.3C169.7 689 212.3 689 254.8 691.7C297.3 694.3 339.7 699.7 382 689C424.3 678.3 466.7 651.7 509 655.7C551.3 659.7 593.7 694.3 636.2 697C678.7 699.7 721.3 670.3 763.8 669C806.3 667.7 848.7 694.3 891 707.7C933.3 721 975.7 721 1018 709C1060.3 697 1102.7 673 1145.2 671.7C1187.7 670.3 1230.3 691.7 1272.8 701C1315.3 710.3 1357.7 707.7 1378.8 706.3L1400 705L1400 583L1378.8 572.3C1357.7 561.7 1315.3 540.3 1272.8 539C1230.3 537.7 1187.7 556.3 1145.2 573.7C1102.7 591 1060.3 607 1018 613.7C975.7 620.3 933.3 617.7 891 595C848.7 572.3 806.3 529.7 763.8 540.3C721.3 551 678.7 615 636.2 629.7C593.7 644.3 551.3 609.7 509 600.3C466.7 591 424.3 607 382 611C339.7 615 297.3 607 254.8 597.7C212.3 588.3 169.7 577.7 127.2 560.3C84.7 543 42.3 519 21.2 507L0 495Z" fill="#4f458d"></path><path d="M0 761L21.2 755.7C42.3 750.3 84.7 739.7 127.2 739.7C169.7 739.7 212.3 750.3 254.8 750.3C297.3 750.3 339.7 739.7 382 730.3C424.3 721 466.7 713 509 717C551.3 721 593.7 737 636.2 743.7C678.7 750.3 721.3 747.7 763.8 750.3C806.3 753 848.7 761 891 762.3C933.3 763.7 975.7 758.3 1018 757C1060.3 755.7 1102.7 758.3 1145.2 758.3C1187.7 758.3 1230.3 755.7 1272.8 754.3C1315.3 753 1357.7 753 1378.8 753L1400 753L1400 703L1378.8 704.3C1357.7 705.7 1315.3 708.3 1272.8 699C1230.3 689.7 1187.7 668.3 1145.2 669.7C1102.7 671 1060.3 695 1018 707C975.7 719 933.3 719 891 705.7C848.7 692.3 806.3 665.7 763.8 667C721.3 668.3 678.7 697.7 636.2 695C593.7 692.3 551.3 657.7 509 653.7C466.7 649.7 424.3 676.3 382 687C339.7 697.7 297.3 692.3 254.8 689.7C212.3 687 169.7 687 127.2 692.3C84.7 697.7 42.3 708.3 21.2 713.7L0 719Z" fill="#3f3e6c"></path><path d="M0 801L21.2 801C42.3 801 84.7 801 127.2 801C169.7 801 212.3 801 254.8 801C297.3 801 339.7 801 382 801C424.3 801 466.7 801 509 801C551.3 801 593.7 801 636.2 801C678.7 801 721.3 801 763.8 801C806.3 801 848.7 801 891 801C933.3 801 975.7 801 1018 801C1060.3 801 1102.7 801 1145.2 801C1187.7 801 1230.3 801 1272.8 801C1315.3 801 1357.7 801 1378.8 801L1400 801L1400 751L1378.8 751C1357.7 751 1315.3 751 1272.8 752.3C1230.3 753.7 1187.7 756.3 1145.2 756.3C1102.7 756.3 1060.3 753.7 1018 755C975.7 756.3 933.3 761.7 891 760.3C848.7 759 806.3 751 763.8 748.3C721.3 745.7 678.7 748.3 636.2 741.7C593.7 735 551.3 719 509 715C466.7 711 424.3 719 382 728.3C339.7 737.7 297.3 748.3 254.8 748.3C212.3 748.3 169.7 737.7 127.2 737.7C84.7 737.7 42.3 748.3 21.2 753.7L0 759Z" fill="#34354a"></path></svg>